<svg width="42" height="42" viewBox="0 0 42 42" fill="none" xmlns="http://www.w3.org/2000/svg">
                            <mask id="path-1-inside-1_1_510" fill="white">
                            <path d="M0.270417 9.29527L11.7404 10.4074C17.2242 10.9391 21.2386 15.8156 20.7069 21.2994L9.23695 20.1872C3.75318 19.6555 -0.261278 14.779 0.270417 9.29527Z"/>
                            <path d="M0.967619 2.10509L5.94388 2.58758C15.014 3.467 21.654 11.5327 20.7745 20.6029L20.7069 21.2994L15.7307 20.8168C6.66058 19.9374 0.0206711 11.8717 0.900096 2.80151L0.967619 2.10509Z"/>
                            <path d="M13.5169 20.6022L12.4048 32.0722C11.8731 37.556 6.99663 41.5704 1.51285 41.0387L2.62496 29.5687C3.15666 24.085 8.03316 20.0705 13.5169 20.6022Z"/>
                            <path d="M20.7069 21.2994L20.2244 26.2756C19.345 35.3458 11.2793 41.9857 2.20912 41.1062L1.51285 41.0387L1.99519 36.0625C2.87462 26.9923 10.9404 20.3524 20.0105 21.2318L20.7069 21.2994Z"/>
                            <path d="M32.7109 0.862824L31.5988 12.3328C31.0671 17.8166 26.1907 21.831 20.7069 21.2994L21.8189 9.82936C22.3506 4.34558 27.2271 0.331129 32.7109 0.862824Z"/>
                            <path d="M39.9011 1.55999L39.4186 6.53624C38.5392 15.6064 30.4735 22.2463 21.4033 21.3669L20.7069 21.2994L21.1894 16.3231C22.0688 7.25295 30.1345 0.613038 39.2047 1.49246L39.9011 1.55999Z"/>
                            <path d="M41.1433 33.3035L29.6733 32.1913C24.1895 31.6596 20.1752 26.7831 20.7069 21.2994L32.1767 22.4115C37.6605 22.9432 41.675 27.8197 41.1433 33.3035Z"/>
                            <path d="M40.4463 40.4936L35.47 40.0111C26.3998 39.1317 19.7599 31.066 20.6394 21.9958L20.7069 21.2994L25.6831 21.7819C34.7533 22.6613 41.3932 30.727 40.5138 39.7972L40.4463 40.4936Z"/>
                            </mask>
                            <path d="M0.270417 9.29527L1.06659 1.08378L-7.14491 0.287609L-7.94108 8.4991L0.270417 9.29527ZM9.23695 20.1872L8.44078 28.3987H8.44078L9.23695 20.1872ZM11.7404 10.4074L12.5366 2.19589H12.5366L11.7404 10.4074ZM0.967619 2.10509L1.76379 -6.1064L-6.4477 -6.90257L-7.24387 1.30892L0.967619 2.10509ZM15.7307 20.8168L16.527 12.6053L16.5269 12.6053L15.7307 20.8168ZM0.900096 2.80151L-7.3114 2.00534V2.00534L0.900096 2.80151ZM5.94388 2.58758L6.74005 -5.62391L5.94388 2.58758ZM20.7745 20.6029L28.986 21.3997L28.986 21.3991L20.7745 20.6029ZM13.5169 20.6022L21.7284 21.3984L22.5246 13.1869L14.3131 12.3907L13.5169 20.6022ZM1.51285 41.0387L-6.69866 40.2428L-7.49455 48.4539L0.716547 49.2502L1.51285 41.0387ZM2.62496 29.5687L-5.58653 28.7726L2.62496 29.5687ZM12.4048 32.0722L4.19333 31.276V31.276L12.4048 32.0722ZM1.99519 36.0625L-6.2163 35.2663L-6.21632 35.2665L1.99519 36.0625ZM20.0105 21.2318L20.8068 13.0203L20.8067 13.0203L20.0105 21.2318ZM20.2244 26.2756L12.013 25.4794L12.013 25.4794L20.2244 26.2756ZM2.20912 41.1062L1.41281 49.3177L1.41295 49.3177L2.20912 41.1062ZM32.7109 0.862824L40.9224 1.65899L41.7185 -6.5525L33.507 -7.34867L32.7109 0.862824ZM21.8189 9.82936L13.6074 9.03319L13.6074 9.03329L21.8189 9.82936ZM31.5988 12.3328L23.3873 11.5366L31.5988 12.3328ZM39.9011 1.55999L48.1126 2.35615L48.9088 -5.85533L40.6973 -6.65151L39.9011 1.55999ZM21.1894 16.3231L12.9779 15.5269L12.9779 15.527L21.1894 16.3231ZM39.2047 1.49246L40.0009 -6.71903H40.0009L39.2047 1.49246ZM39.4186 6.53624L47.6301 7.33241V7.33241L39.4186 6.53624ZM21.4033 21.3669L20.6068 29.5784L20.6071 29.5784L21.4033 21.3669ZM41.1433 33.3035L40.3471 41.5149L48.5586 42.3111L49.3548 34.0996L41.1433 33.3035ZM32.1767 22.4115L31.3805 30.623L31.3806 30.623L32.1767 22.4115ZM29.6733 32.1913L30.4694 23.9799H30.4694L29.6733 32.1913ZM40.4463 40.4936L39.6501 48.7051L47.8616 49.5013L48.6578 41.2898L40.4463 40.4936ZM25.6831 21.7819L24.8869 29.9934L24.887 29.9934L25.6831 21.7819ZM40.5138 39.7972L48.7253 40.5934L48.7253 40.5934L40.5138 39.7972ZM35.47 40.0111L36.2662 31.7996H36.2662L35.47 40.0111ZM20.6394 21.9958L12.4279 21.1989L12.4279 21.1996L20.6394 21.9958ZM-0.525752 17.5068L10.9442 18.6189L12.5366 2.19589L1.06659 1.08378L-0.525752 17.5068ZM21.5031 13.0879L10.0331 11.9758L8.44078 28.3987L19.9108 29.5108L21.5031 13.0879ZM10.0331 11.9758C9.08443 11.8838 8.38993 11.0401 8.48191 10.0914L-7.94108 8.4991C-8.91248 18.518 -1.57807 27.4273 8.44078 28.3987L10.0331 11.9758ZM10.9442 18.6189C11.8929 18.7109 12.5874 19.5545 12.4955 20.5032L28.9184 22.0955C29.8898 12.0767 22.5554 3.16729 12.5366 2.19589L10.9442 18.6189ZM0.171449 10.3166L5.14771 10.7991L6.74005 -5.62391L1.76379 -6.1064L0.171449 10.3166ZM12.5631 19.8061L12.4955 20.5025L28.9184 22.0962L28.986 21.3997L12.5631 19.8061ZM21.5032 13.0879L16.527 12.6053L14.9345 29.0283L19.9107 29.5108L21.5032 13.0879ZM9.11159 3.59768L9.17911 2.90126L-7.24387 1.30892L-7.3114 2.00534L9.11159 3.59768ZM16.5269 12.6053C11.9918 12.1656 8.67188 8.13276 9.11159 3.59768L-7.3114 2.00534C-8.63053 15.6106 1.32933 27.7092 14.9346 29.0283L16.5269 12.6053ZM5.14771 10.7991C9.68279 11.2388 13.0027 15.2717 12.563 19.8067L28.986 21.3991C30.3052 7.79383 20.3453 -4.30478 6.74005 -5.62391L5.14771 10.7991ZM5.30544 19.806L4.19333 31.276L20.6163 32.8684L21.7284 21.3984L5.30544 19.806ZM9.72435 41.8349L10.8365 30.3649L-5.58653 28.7726L-6.69864 40.2426L9.72435 41.8349ZM10.8365 30.3649C10.9284 29.4162 11.7721 28.7217 12.7208 28.8137L14.3131 12.3907C4.29425 11.4193 -4.61512 18.7537 -5.58653 28.7726L10.8365 30.3649ZM4.19333 31.276C4.10135 32.2247 3.25771 32.9192 2.30902 32.8272L0.716685 49.2502C10.7355 50.2216 19.6449 42.8872 20.6163 32.8684L4.19333 31.276ZM12.4955 20.5032L12.013 25.4794L28.4359 27.0718L28.9184 22.0955L12.4955 20.5032ZM3.00543 32.8948L2.30916 32.8272L0.716547 49.2502L1.41281 49.3177L3.00543 32.8948ZM9.72437 41.8347L10.2067 36.8584L-6.21632 35.2665L-6.69866 40.2428L9.72437 41.8347ZM19.2142 29.4433L19.9106 29.5108L21.5032 13.0879L20.8068 13.0203L19.2142 29.4433ZM10.2067 36.8586C10.6464 32.3236 14.6793 29.0036 19.2143 29.4433L20.8067 13.0203C7.20144 11.7012 -4.89716 21.6611 -6.2163 35.2663L10.2067 36.8586ZM12.013 25.4794C11.5732 30.0145 7.54037 33.3345 3.00529 32.8948L1.41295 49.3177C15.0182 50.6369 27.1168 40.677 28.4359 27.0718L12.013 25.4794ZM24.4994 0.0666542L23.3873 11.5366L39.8103 13.129L40.9224 1.65899L24.4994 0.0666542ZM28.9184 22.0954L30.0304 10.6254L13.6074 9.03329L12.4954 20.5033L28.9184 22.0954ZM30.0304 10.6255C30.1224 9.67683 30.966 8.98233 31.9147 9.07432L33.507 -7.34867C23.4882 -8.32008 14.5788 -0.985666 13.6074 9.03319L30.0304 10.6255ZM23.3873 11.5366C23.2953 12.4855 22.4517 13.1798 21.5031 13.0879L19.9108 29.5108C29.9298 30.4823 38.8389 23.1477 39.8103 13.129L23.3873 11.5366ZM31.6896 0.763818L31.2071 5.74008L47.6301 7.33241L48.1126 2.35615L31.6896 0.763818ZM22.1998 13.1554L21.5034 13.0879L19.9105 29.5108L20.6068 29.5784L22.1998 13.1554ZM28.9184 22.0954L29.4009 17.1192L12.9779 15.527L12.4954 20.5033L28.9184 22.0954ZM38.4085 9.70396L39.1049 9.77148L40.6973 -6.65151L40.0009 -6.71903L38.4085 9.70396ZM29.4009 17.1193C29.8406 12.5842 33.8734 9.26424 38.4085 9.70396L40.0009 -6.71903C26.3956 -8.03817 14.297 1.9217 12.9779 15.5269L29.4009 17.1193ZM31.2071 5.74007C30.7674 10.2752 26.7345 13.5951 22.1995 13.1554L20.6071 29.5784C34.2124 30.8975 46.311 20.9377 47.6301 7.33241L31.2071 5.74007ZM41.9394 25.092L30.4694 23.9799L28.8771 40.4028L40.3471 41.5149L41.9394 25.092ZM19.9107 29.5108L31.3805 30.623L32.9729 14.2L21.5031 13.0879L19.9107 29.5108ZM31.3806 30.623C32.3293 30.715 33.0238 31.5586 32.9318 32.5073L49.3548 34.0996C50.3262 24.0808 42.9918 15.1714 32.9729 14.2L31.3806 30.623ZM30.4694 23.9799C29.521 23.8879 28.8264 23.0445 28.9184 22.0955L12.4955 20.5032C11.5241 30.5218 18.858 39.4314 28.8771 40.4028L30.4694 23.9799ZM41.2424 32.2821L36.2662 31.7996L34.6738 48.2226L39.6501 48.7051L41.2424 32.2821ZM28.8508 22.7927L28.9184 22.0962L12.4955 20.5025L12.4279 21.1989L28.8508 22.7927ZM19.9107 29.5108L24.8869 29.9934L26.4794 13.5704L21.5032 13.0879L19.9107 29.5108ZM32.3023 39.001L32.2348 39.6974L48.6578 41.2898L48.7253 40.5934L32.3023 39.001ZM24.887 29.9934C29.4221 30.4331 32.742 34.4659 32.3023 39.001L48.7253 40.5934C50.0444 26.9881 40.0846 14.8895 26.4793 13.5704L24.887 29.9934ZM36.2662 31.7996C31.7311 31.3599 28.4111 27.327 28.8508 22.792L12.4279 21.1996C11.1087 34.8049 21.0686 46.9035 34.6738 48.2226L36.2662 31.7996Z" fill="#73895D" mask="url(#path-1-inside-1_1_510)"/>
                            </svg>